<svg width="48" height="48" viewBox="0 0 48 48" fill="none" xmlns="http://www.w3.org/2000/svg">
<path d="M8.85289 40.8015L5.48389 3H42.5159L39.1424 40.7955L23.9774 45L8.85289 40.8015Z" fill="#1572B6"/>
<path d="M24 41.7871L36.255 38.3896L39.138 6.09155H24V41.7871Z" fill="#33A9DC"/>
<path d="M24 19.7865H30.135L30.558 15.039H24V10.4025H24.0165H35.625L35.514 11.646L34.3755 24.423H24V19.7865Z" fill="white"/>
<path d="M24.0286 31.827L24.0076 31.833L18.8446 30.438L18.5146 26.7405H16.0051H13.8601L14.5096 34.02L24.0061 36.657L24.0286 36.651V31.827Z" fill="#EBEBEB"/>
<path d="M29.7405 24.2264L29.1825 30.4349L24.012 31.8299V36.6539L33.516 34.0199L33.5865 33.2369L34.392 24.2264H29.7405Z" fill="white"/>
<path d="M24.0166 10.4025V13.2825V15.027V15.039H12.8326H12.8176L12.7246 13.9965L12.5131 11.646L12.4021 10.4025H24.0166Z" fill="#EBEBEB"/>
<path d="M24 19.7865V22.6665V24.411V24.423H18.9165H18.9015L18.8085 23.3805L18.5985 21.03L18.4875 19.7865H24Z" fill="#EBEBEB"/>
</svg>
