<svg width="48" height="48" viewBox="0 0 48 48" fill="none" xmlns="http://www.w3.org/2000/svg">
<path d="M0.141357 23.9531C0.141357 27.5559 3.65942 30.9191 9.20567 32.8149C8.09811 38.3906 9.00729 42.8848 12.0437 44.6359C15.1646 46.4359 19.8142 45.1899 24.2274 41.3321C28.5292 45.0341 32.8768 46.491 35.9105 44.7349C39.0287 42.9298 39.9769 38.1309 38.8387 32.3811C44.6156 30.4712 47.847 27.6034 47.847 23.9531C47.847 20.4339 44.3225 17.3895 38.8509 15.5059C40.0762 9.51842 39.038 5.13336 35.8759 3.30993C32.8273 1.55193 28.4291 3.08418 24.0641 6.88293C19.5229 2.85093 15.1682 1.61999 12.0094 3.44849C8.96361 5.21155 8.09454 9.78749 9.20567 15.4663C3.84654 17.3347 0.141357 20.4482 0.141357 23.9531Z" fill="white"/>
<path d="M37.6923 17.3763C37.2413 17.2217 36.7866 17.0784 36.3284 16.9466C36.4044 16.6379 36.4746 16.3277 36.5392 16.0164C37.5715 11.0049 36.8965 6.96766 34.5914 5.63866C32.3813 4.36403 28.7667 5.69303 25.1161 8.86985C24.7564 9.1836 24.4046 9.50639 24.0612 9.83791C23.8312 9.61747 23.5972 9.40131 23.3592 9.18953C19.5333 5.79241 15.6983 4.36103 13.3957 5.69397C11.1877 6.97216 10.5337 10.7677 11.4631 15.5171C11.5556 15.9874 11.66 16.4553 11.7762 16.9203C11.2336 17.0745 10.7095 17.2387 10.2082 17.4135C5.72278 18.9772 2.85815 21.4282 2.85815 23.9703C2.85815 26.5961 5.93315 29.2297 10.6053 30.8265C10.9841 30.9553 11.3661 31.0748 11.7509 31.1846C11.6259 31.6856 11.5149 32.19 11.4181 32.6972C10.532 37.364 11.224 41.0696 13.4262 42.3399C15.7008 43.6515 19.5183 42.3033 23.2357 39.054C23.5295 38.7971 23.8244 38.5247 24.1197 38.2391C24.4917 38.598 24.8736 38.9464 25.265 39.284C28.8657 42.3825 32.4218 43.6337 34.6222 42.36C36.8947 41.0445 37.633 37.0637 36.6742 32.2203C36.601 31.8504 36.5157 31.4726 36.4201 31.0878C36.6882 31.0087 36.9513 30.927 37.208 30.8418C42.065 29.2327 45.2249 26.6312 45.2249 23.9703C45.2249 21.419 42.268 18.9515 37.6923 17.3763V17.3763Z" fill="#53C1DE"/>
<path d="M36.6385 29.124C36.407 29.2007 36.1692 29.2747 35.927 29.3466C35.3907 27.6491 34.667 25.8441 33.7816 23.9794C34.6267 22.1587 35.3223 20.3769 35.8435 18.6904C36.2768 18.816 36.6976 18.9482 37.103 19.0879C41.0236 20.4373 43.415 22.4329 43.415 23.9704C43.415 25.6082 40.8322 27.7344 36.6387 29.124H36.6385ZM34.8985 32.5719C35.3225 34.7136 35.383 36.6499 35.1022 38.1636C34.8498 39.5237 34.3424 40.4304 33.715 40.7936C32.3798 41.5665 29.5244 40.5619 26.4453 37.9121C26.0922 37.6084 25.7365 37.284 25.3799 36.9409C26.5737 35.6351 27.7668 34.1171 28.9312 32.4315C30.9794 32.2498 32.9144 31.9526 34.6692 31.5471C34.7555 31.8958 34.8324 32.2376 34.8985 32.5719V32.5719ZM17.3017 40.6601C15.9972 41.1208 14.9583 41.1339 14.3303 40.7719C12.9938 40.0012 12.4385 37.0256 13.1962 33.0347C13.2863 32.563 13.3894 32.094 13.5055 31.6281C15.2408 32.0119 17.1618 32.2881 19.2149 32.4546C20.387 34.104 21.6145 35.6201 22.8517 36.9478C22.5887 37.2021 22.3196 37.45 22.0445 37.6911C20.4007 39.1281 18.7535 40.1473 17.3019 40.6601H17.3017ZM11.1905 29.1139C9.1246 28.4077 7.41854 27.4901 6.2491 26.4889C5.19835 25.5889 4.66772 24.6954 4.66772 23.9704C4.66772 22.4278 6.96779 20.46 10.8038 19.1226C11.2853 18.9554 11.7716 18.8024 12.262 18.6637C12.7923 20.3882 13.4877 22.1912 14.327 24.0144C13.4769 25.8649 12.7715 27.6966 12.2363 29.4412C11.8851 29.3407 11.5364 29.2315 11.1905 29.1139V29.1139ZM13.2391 15.1695C12.4428 11.1002 12.9715 8.03061 14.3022 7.26036C15.7197 6.43986 18.8538 7.60986 22.1572 10.5429C22.3683 10.7304 22.5803 10.9267 22.7928 11.1298C21.562 12.4515 20.3457 13.9562 19.1838 15.5961C17.1912 15.7807 15.2838 16.0774 13.5303 16.4747C13.4223 16.0421 13.3252 15.6068 13.2391 15.1693V15.1695ZM31.5142 19.6821C31.1 18.9666 30.6705 18.2602 30.2258 17.5633C31.5777 17.7339 32.8728 17.9608 34.0889 18.2385C33.7238 19.4087 33.2688 20.6323 32.7329 21.8867C32.3414 21.1438 31.935 20.4087 31.5142 19.6821V19.6821ZM24.0616 12.4232C24.8963 13.3275 25.7324 14.3374 26.5548 15.4329C24.8866 15.3541 23.2156 15.3537 21.5474 15.4318C22.3705 14.3464 23.2137 13.338 24.0616 12.4232V12.4232ZM16.5612 19.6944C16.1456 20.4153 15.7469 21.1458 15.3653 21.8854C14.8383 20.6353 14.3873 19.4062 14.0191 18.2194C15.2279 17.9488 16.517 17.7277 17.86 17.5599C17.4105 18.2612 16.9774 18.9729 16.5612 19.6944V19.6944ZM17.8987 30.51C16.5112 30.3551 15.2026 30.1453 13.9942 29.8822C14.3682 28.6744 14.8291 27.4189 15.3674 26.142C15.7505 26.8821 16.151 27.613 16.5685 28.3342C16.9946 29.07 17.4381 29.7954 17.8987 30.51V30.51ZM24.1117 35.6454C23.2538 34.7197 22.3983 33.696 21.5626 32.5948C22.3737 32.6267 23.2008 32.6428 24.0413 32.6428C24.905 32.6428 25.7587 32.6235 26.5988 32.586C25.7738 33.7072 24.9408 34.7325 24.1117 35.6454ZM32.7502 26.0769C33.3164 27.3677 33.7938 28.6164 34.1729 29.8039C32.9444 30.0842 31.6182 30.3099 30.2208 30.4776C30.6686 29.7676 31.1023 29.0489 31.5215 28.3217C31.9476 27.5826 32.3573 26.8342 32.7502 26.0769V26.0769ZM29.9536 27.4176C29.3118 28.5324 28.634 29.6261 27.9211 30.6969C26.6641 30.7867 25.3651 30.833 24.0413 30.833C22.723 30.833 21.4405 30.792 20.2055 30.7119C19.4741 29.6436 18.7834 28.548 18.1349 27.4275C17.4894 26.3129 16.8865 25.1742 16.3274 24.0139C16.8851 22.8532 17.4862 21.7139 18.1295 20.5984V20.5987C18.7726 19.483 19.4578 18.3921 20.1837 17.3284C21.4437 17.2331 22.7356 17.1832 24.0415 17.1832C25.3533 17.1832 26.6469 17.2335 27.9065 17.3295C28.625 18.3916 29.3059 19.4787 29.9478 20.5888C30.5933 21.7018 31.2024 22.8355 31.7742 23.9882C31.2083 25.1525 30.6011 26.2964 29.9538 27.4176H29.9536ZM33.6873 7.20655C35.1059 8.0248 35.6577 11.3242 34.7663 15.6512C34.7079 15.9331 34.6444 16.2138 34.5758 16.4934C32.8182 16.0879 30.9095 15.786 28.9111 15.5985C27.7469 13.9408 26.5407 12.4335 25.3298 11.1289C25.6471 10.823 25.972 10.525 26.3041 10.2352C29.432 7.51311 32.3553 6.43836 33.6873 7.20655V7.20655Z" fill="white"/>
<path d="M24.0415 20.1871C26.131 20.1871 27.8247 21.881 27.8247 23.9703C27.8247 26.0598 26.131 27.7537 24.0415 27.7537C21.9522 27.7537 20.2583 26.0598 20.2583 23.9703C20.2583 21.881 21.9522 20.1871 24.0415 20.1871" fill="#53C1DE"/>
</svg>
