<svg width="12" height="12" viewBox="0 0 12 12" fill="none" xmlns="http://www.w3.org/2000/svg">
<path d="M10.8215 5.49108H2.9853L7.67548 1.41965C7.75048 1.35402 7.70494 1.23215 7.60583 1.23215H6.42057C6.36833 1.23215 6.31878 1.2509 6.27994 1.28438L1.21878 5.6759C1.17243 5.71608 1.13525 5.76575 1.10977 5.82156C1.08429 5.87736 1.07111 5.93799 1.07111 5.99933C1.07111 6.06068 1.08429 6.12131 1.10977 6.17711C1.13525 6.23292 1.17243 6.28259 1.21878 6.32277L6.3094 10.7411C6.32949 10.7585 6.3536 10.7679 6.37905 10.7679H7.60449C7.7036 10.7679 7.74914 10.6446 7.67414 10.5804L2.9853 6.50893H10.8215C10.8804 6.50893 10.9286 6.46072 10.9286 6.40179V5.59822C10.9286 5.53929 10.8804 5.49108 10.8215 5.49108Z" fill="white"/>
</svg>
