<svg width="44" height="47" viewBox="0 0 44 47" fill="none" xmlns="http://www.w3.org/2000/svg">
<path d="M5.5 41.125V5.875H38.5V41.125H5.5Z" fill="#FFD600"/>
<path d="M27.0764 32.2606C27.7108 33.3611 28.4001 34.4157 29.8603 34.4157C31.0868 34.4157 31.7303 33.7646 31.7303 32.8637C31.7303 31.7857 31.0648 31.4028 29.7155 30.7752L28.9758 30.4383C26.8408 29.4709 25.4209 28.2587 25.4209 25.6982C25.4209 23.3384 27.1122 21.5426 29.7549 21.5426C31.6368 21.5426 32.9889 22.2388 33.9643 24.062L31.6598 25.6355C31.1528 24.6681 30.6047 24.2872 29.7549 24.2872C28.8878 24.2872 28.3387 24.8718 28.3387 25.6355C28.3387 26.5794 28.8887 26.9613 30.1583 27.5459L30.898 27.8827C33.4143 29.0274 34.8333 30.1965 34.8333 32.8246C34.8333 35.6563 32.7396 37.2083 29.9291 37.2083C27.18 37.2083 25.6189 35.7346 24.7499 33.9105L27.0764 32.2606ZM16.4559 32.3409C16.9198 33.228 17.6247 33.9105 18.6385 33.9105C19.6083 33.9105 20.1666 33.5012 20.1666 31.91V21.5416H23.2218V32.4114C23.2218 35.7082 21.4316 37.2083 18.8173 37.2083C16.455 37.2083 14.75 35.4987 14.0552 33.9105L16.4559 32.3409Z" fill="#000001"/>
</svg>
